<?xml version="1.0" encoding="utf-8"?>
<!-- Generator: Adobe Illustrator 28.2.0, SVG Export Plug-In . SVG Version: 6.00 Build 0)  -->
<svg version="1.1" id="Capa_1" xmlns="http://www.w3.org/2000/svg" xmlns:xlink="http://www.w3.org/1999/xlink" x="0px" y="0px"
	 viewBox="0 0 1536 584.44" style="enable-background:new 0 0 1536 584.44;" xml:space="preserve">
<style type="text/css">
	.st0{fill:#5353EE;}
</style>
<g>
	<g>
		<path class="st0" d="M495.81,94.57c4.65,3.14,9.18,6.43,13.59,9.88l-37.72,52.01c-4.36-3.51-8.9-6.8-13.6-9.88L495.81,94.57z
			 M269.31,73.04l19.95,61.39c12.66-5.91,26.15-10.34,40.24-13.07l-19.95-61.39C295.64,63.14,282.19,67.54,269.31,73.04
			 M409.29,124.47c4.9,1.36,9.72,2.9,14.44,4.66l19.84-61.08c-4.74-1.71-9.55-3.27-14.43-4.68L409.29,124.47z M211.59,205.98
			c6.36-11.12,13.86-21.5,22.43-30.9l-52.12-37.87c-8.28,9.65-15.8,19.97-22.47,30.88L211.59,205.98z M244.89,164.16
			c9.85-9.08,20.76-17.01,32.51-23.64l-37.92-52.19c-11.51,6.97-22.38,14.89-32.5,23.65L244.89,164.16z M586.14,209.24l-61.12,19.9
			c2.36,6.06,4.41,12.27,6.09,18.64l61.09-19.89C590.43,221.55,588.41,215.34,586.14,209.24 M188.69,292.22
			c0-5.81,0.3-11.56,0.86-17.23h-64.38c-0.41,5.69-0.63,11.44-0.63,17.23c0,5.8,0.22,11.54,0.63,17.23h64.38
			C188.99,303.78,188.69,298.04,188.69,292.22 M536.86,292.22c0,3.65-0.15,7.27-0.37,10.86h64.26c0.16-3.6,0.26-7.22,0.26-10.86
			c0-3.64-0.09-7.26-0.26-10.86h-64.26C536.71,284.95,536.86,288.57,536.86,292.22 M192.5,255.97c2.54-12.01,6.35-23.54,11.22-34.5
			l-61.3-19.92c-4.57,11.1-8.33,22.63-11.2,34.5L192.5,255.97z M498,182.62c3.91,4.82,7.55,9.85,10.93,15.08L560.96,160
			c-3.46-5.17-7.1-10.2-10.94-15.07L498,182.62z M340.51,55.04v64.57c0,0,0,0,0,0c2.92-0.37,12.24-1.47,22.27-1.47
			c6.75,0,13.42,0.39,19.99,1.14l19.93-61.35c-12.95-2.13-26.24-3.25-39.82-3.25C355.3,54.69,347.84,54.82,340.51,55.04
			 M530.08,265.09l61.12-19.89c-1.63-6.38-3.59-12.63-5.87-18.75l-61.09,19.88C526.52,252.44,528.48,258.7,530.08,265.09
			 M186.57,325.94h-64.32c1.05,12.32,3.02,24.37,5.85,36.08l61.3-19.93C188.22,336.77,187.27,331.38,186.57,325.94 M203.85,363.42
			l-61.32,19.93c5.51,13.43,12.21,26.24,19.96,38.29l52.16-37.9C210.42,377.27,206.8,370.49,203.85,363.42 M225.94,400.86
			l-52.12,37.86c8.72,10.71,18.47,20.55,29.09,29.37l37.93-52.19C235.43,411.29,230.45,406.26,225.94,400.86 M256.37,426.81
			l-37.88,52.14c10.79,7.18,22.19,13.49,34.08,18.85l19.95-61.4C266.98,433.69,261.59,430.48,256.37,426.81 M291.2,444.28
			l-19.94,61.39c12.61,3.96,25.58,6.92,38.86,8.78l19.93-61.34C316.65,451.78,303.64,448.83,291.2,444.28 M349.25,456.04v64.53
			c4.53,0.25,9.09,0.39,13.68,0.39c10.9,0,21.62-0.71,32.12-2.08l-19.91-61.28c-4.05,0.29-8.12,0.43-12.23,0.43
			C358.33,458.03,353.79,457.86,349.25,456.04 M394.05,453.57l19.93,61.36c13.21-2.92,26.04-6.93,38.37-11.93l-19.94-61.38
			C420.1,446.84,407.22,450.88,394.05,453.57 M452.06,432.07L472,493.45c11.37-6.02,22.14-12.9,32.22-20.56l-37.88-52.14
			C461.79,424.72,457.02,428.51,452.06,432.07 M480.71,407.57l37.92,52.19c10.02-9.43,19.1-19.85,27.1-31.09l-52.12-37.86
			C489.61,396.58,485.3,402.18,480.71,407.57 M505.86,371.46l52.16,37.9c6.87-12.62,12.57-25.96,16.98-39.89l-61.3-19.93
			C511.55,357.12,508.93,364.45,505.86,371.46 M518.59,330.05l61.29,19.92c2.25-12.47,3.44-25.32,3.44-38.43h-64.34
			C519.05,317.8,518.91,323.98,518.59,330.05"/>
	</g>
	<g>
		<path class="st0" d="M732.16,189.87v196.29h-54.89V189.87H732.16z"/>
		<path class="st0" d="M935.2,380.82c-14.05,6.9-32.18,10.38-54.37,10.38c-30.43,0-54.58-8.91-72.44-26.74
			c-17.86-17.82-26.78-41.2-26.78-70.13c0-31.14,9.78-56.57,29.36-76.27c19.57-19.7,45.57-29.56,78.01-29.56
			c18.31,0,33.72,2.39,46.22,7.16v48.65c-12.5-7.46-26.74-11.19-42.71-11.19c-16.63,0-29.98,5.13-40.03,15.4
			c-10.06,10.27-15.08,24.09-15.08,41.46c0,16.69,4.78,29.91,14.35,39.66c9.57,9.75,22.58,14.63,39.04,14.63
			c15.31,0,30.12-3.98,44.44-11.94V380.82z"/>
		<path class="st0" d="M999.12,170.39c-8.96,0-16.27-2.63-21.94-7.89c-5.67-5.26-8.5-11.7-8.5-19.31
			c0-7.85,2.83-14.26,8.5-19.23c5.67-4.98,12.98-7.46,21.94-7.46c9.12,0,16.47,2.49,22.05,7.46
			c5.58,4.97,8.37,11.38,8.37,19.23c0,7.94-2.79,14.43-8.37,19.44C1015.59,167.88,1008.24,170.39,999.12,170.39z
			 M1026.08,386.16h-54.89V198.68h54.89V386.16z"/>
		<path class="st0" d="M1074.67,381.25v-44.43c9.04,5.39,18.02,9.42,26.95,12.08c8.92,2.66,17.34,3.99,25.24,3.99
			c9.63,0,17.21-1.33,22.74-3.99c5.53-2.66,8.3-6.75,8.3-12.28c0-3.55-1.26-6.5-3.78-8.86
			c-2.52-2.36-5.77-4.44-9.75-6.24c-3.98-1.8-8.33-3.38-13.05-4.74c-4.72-1.36-9.25-2.93-13.61-4.7
			c-6.97-2.75-13.11-5.68-18.4-8.78c-5.29-3.1-9.75-6.79-13.38-11.07c-3.62-4.28-6.37-9.25-8.24-14.91
			c-1.87-5.67-2.8-12.36-2.8-20.08c0-10.58,2.31-19.68,6.94-27.29c4.63-7.61,10.79-13.86,18.51-18.74
			c7.72-4.88,16.54-8.46,26.47-10.75c9.93-2.28,20.27-3.43,31.03-3.43c8.4,0,16.91,0.65,25.53,1.95
			c8.62,1.3,17.13,3.22,25.53,5.76v42.18c-6.97-4.12-14.44-7.22-22.42-9.28c-7.98-2.06-15.85-3.1-23.62-3.1
			c-3.56,0-6.92,0.32-10.08,0.98c-3.16,0.65-5.94,1.62-8.36,2.92c-2.42,1.3-4.33,2.98-5.73,5.04
			c-1.4,2.07-2.1,4.45-2.1,7.17c0,3.3,1.04,6.13,3.14,8.5c2.1,2.36,4.85,4.42,8.24,6.18
			c3.39,1.77,7.17,3.36,11.34,4.78c4.17,1.42,8.35,2.88,12.56,4.38c7.22,2.64,13.77,5.47,19.65,8.5
			c5.88,3.03,10.92,6.67,15.12,10.94c4.2,4.27,7.43,9.28,9.69,15.03c2.26,5.75,3.39,12.65,3.39,20.7
			c0,11.12-2.44,20.65-7.32,28.57c-4.88,7.93-11.36,14.42-19.43,19.48c-8.07,5.06-17.34,8.76-27.79,11.09
			c-10.45,2.33-21.35,3.49-32.69,3.49C1110.08,391.2,1091.99,387.88,1074.67,381.25z"/>
		<path class="st0" d="M1291.12,170.39c-8.96,0-16.27-2.63-21.94-7.89c-5.67-5.26-8.5-11.7-8.5-19.31
			c0-7.85,2.83-14.26,8.5-19.23c5.67-4.98,12.98-7.46,21.94-7.46c9.12,0,16.47,2.49,22.05,7.46
			c5.58,4.97,8.37,11.38,8.37,19.23c0,7.94-2.79,14.43-8.37,19.44C1307.59,167.88,1300.24,170.39,1291.12,170.39z
			 M1318.08,386.16h-54.89V198.68h54.89V386.16z"/>
	</g>
</g>
</svg>
